<svg xmlns="http://www.w3.org/2000/svg" viewBox="0 0 860 340" width="100%" role="img" aria-label="O&#x27;lchov noaniqligi diapazonlari" font-family="system-ui,-apple-system,Segoe UI,Roboto,Arial,sans-serif"><rect width="860" height="340" rx="14" fill="#ffffff"/><rect width="860" height="340" rx="14" fill="none" stroke="#cbd5e0"/><text x="22" y="34" font-size="17" fill="#1a202c" text-anchor="start" font-weight="700">K3 · O&#x27;lchov noaniqligi: qayerda xato katta?</text><text x="22" y="56" font-size="12.5" fill="#718096" text-anchor="start" font-weight="400">gorizontal diapazonlar, % (normaga nisbatan)</text><line x1="352.1" y1="92.0" x2="352.1" y2="298.0" stroke="#edf2f7" stroke-width="1"/><text x="352.10526315789474" y="84" font-size="11" fill="#718096" text-anchor="middle" font-weight="400">-15%</text><line x1="412.6" y1="92.0" x2="412.6" y2="298.0" stroke="#edf2f7" stroke-width="1"/><text x="412.63157894736844" y="84" font-size="11" fill="#718096" text-anchor="middle" font-weight="400">-10%</text><line x1="473.2" y1="92.0" x2="473.2" y2="298.0" stroke="#edf2f7" stroke-width="1"/><text x="473.1578947368421" y="84" font-size="11" fill="#718096" text-anchor="middle" font-weight="400">-5%</text><line x1="533.7" y1="92.0" x2="533.7" y2="298.0" stroke="#edf2f7" stroke-width="1"/><text x="533.6842105263158" y="84" font-size="11" fill="#718096" text-anchor="middle" font-weight="400">0%</text><line x1="594.2" y1="92.0" x2="594.2" y2="298.0" stroke="#edf2f7" stroke-width="1"/><text x="594.2105263157895" y="84" font-size="11" fill="#718096" text-anchor="middle" font-weight="400">5%</text><line x1="654.7" y1="92.0" x2="654.7" y2="298.0" stroke="#edf2f7" stroke-width="1"/><text x="654.7368421052631" y="84" font-size="11" fill="#718096" text-anchor="middle" font-weight="400">10%</text><line x1="715.3" y1="92.0" x2="715.3" y2="298.0" stroke="#edf2f7" stroke-width="1"/><text x="715.2631578947369" y="84" font-size="11" fill="#718096" text-anchor="middle" font-weight="400">15%</text><line x1="775.8" y1="92.0" x2="775.8" y2="298.0" stroke="#edf2f7" stroke-width="1"/><text x="775.7894736842105" y="84" font-size="11" fill="#718096" text-anchor="middle" font-weight="400">20%</text><line x1="533.7" y1="92.0" x2="533.7" y2="298.0" stroke="#718096" stroke-width="1.5"/><text x="22" y="117" font-size="12.5" fill="#1a202c" text-anchor="start" font-weight="400">Oqim o&#x27;lchagichi (bitta yo&#x27;l)</text><rect x="594.2" y="101.0" width="145.3" height="22.0" rx="5" fill="#2b6cb0" opacity="0.85"/><text x="727.4736842105264" y="117" font-size="12.5" fill="#ffffff" text-anchor="end" font-weight="600">5–17%</text><text x="22" y="161" font-size="12.5" fill="#1a202c" text-anchor="start" font-weight="400">Zond (AQSh milliy standart izohi)</text><rect x="594.2" y="145.0" width="12.1" height="22.0" rx="5" fill="#2b6cb0" opacity="0.85"/><text x="616.3157894736842" y="161" font-size="12.5" fill="#2b6cb0" text-anchor="start" font-weight="600">5–6%</text><text x="22" y="205" font-size="12.5" fill="#1a202c" text-anchor="start" font-weight="400">Etalon o&#x27;lchash (NIST)</text><rect x="533.7" y="189.0" width="8.5" height="22.0" rx="5" fill="#2f855a" opacity="0.85"/><text x="552.1578947368421" y="205" font-size="12.5" fill="#2f855a" text-anchor="start" font-weight="600">±0,7%</text><text x="22" y="249" font-size="12.5" fill="#1a202c" text-anchor="start" font-weight="400">Dilutsiya effekti</text><rect x="376.3" y="233.0" width="48.4" height="22.0" rx="5" fill="#c53030" opacity="0.85"/><text x="434.7368421052631" y="249" font-size="12.5" fill="#c53030" text-anchor="start" font-weight="600">−13…−9%</text><text x="22" y="293" font-size="12.5" fill="#1a202c" text-anchor="start" font-weight="400">Zond (Lehigh tadqiqoti)</text><rect x="533.7" y="277.0" width="242.1" height="22.0" rx="5" fill="#c53030" opacity="0.85"/><text x="763.7894736842105" y="293" font-size="12.5" fill="#ffffff" text-anchor="end" font-weight="600">+20% gacha</text><text x="22" y="324" font-size="12" fill="#718096" text-anchor="start" font-weight="400">Xulosa: oqim xatosi hamma moddalarga bir yo&#x27;nalishda o&#x27;tadi — bu tasodifiy shovqin emas, belgili (signed) xato.</text></svg>